<svg xmlns="http://www.w3.org/2000/svg" width="750" viewBox="0 0 750 750" height="750" version="1.0"><defs><clipPath id="a"><path d="M 86.160156 107.167969 L 663.660156 107.167969 L 663.660156 642.667969 L 86.160156 642.667969 Z M 86.160156 107.167969"/></clipPath><clipPath id="b"><path d="M 86.160156 230 L 663.660156 230 L 663.660156 272 L 86.160156 272 Z M 86.160156 230"/></clipPath></defs><path d="M 265.070312 498.492188 C 263.71875 498.492188 262.378906 498.359375 261.050781 498.097656 C 259.726562 497.832031 258.4375 497.441406 257.1875 496.925781 C 255.941406 496.40625 254.753906 495.773438 253.628906 495.019531 C 252.503906 494.269531 251.464844 493.414062 250.507812 492.457031 L 195.578125 437.550781 C 195.101562 437.070312 194.648438 436.574219 194.21875 436.050781 C 193.792969 435.53125 193.390625 434.988281 193.015625 434.425781 C 192.640625 433.867188 192.292969 433.289062 191.972656 432.691406 C 191.65625 432.097656 191.367188 431.488281 191.109375 430.863281 C 190.847656 430.242188 190.621094 429.605469 190.425781 428.960938 C 190.230469 428.3125 190.066406 427.660156 189.933594 427 C 189.800781 426.335938 189.703125 425.667969 189.636719 424.996094 C 189.570312 424.324219 189.539062 423.652344 189.539062 422.976562 C 189.539062 422.300781 189.570312 421.628906 189.636719 420.957031 C 189.703125 420.285156 189.800781 419.617188 189.933594 418.957031 C 190.066406 418.292969 190.230469 417.640625 190.425781 416.996094 C 190.621094 416.347656 190.847656 415.714844 191.109375 415.089844 C 191.367188 414.464844 191.65625 413.855469 191.972656 413.261719 C 192.292969 412.667969 192.640625 412.089844 193.015625 411.527344 C 193.390625 410.964844 193.792969 410.425781 194.21875 409.902344 C 194.648438 409.382812 195.101562 408.882812 195.578125 408.40625 L 250.507812 353.476562 C 250.984375 353 251.484375 352.546875 252.007812 352.117188 C 252.527344 351.6875 253.070312 351.285156 253.632812 350.910156 C 254.191406 350.535156 254.769531 350.191406 255.367188 349.871094 C 255.960938 349.554688 256.570312 349.265625 257.195312 349.007812 C 257.816406 348.746094 258.453125 348.519531 259.097656 348.324219 C 259.742188 348.128906 260.398438 347.964844 261.058594 347.832031 C 261.722656 347.703125 262.386719 347.601562 263.058594 347.535156 C 263.730469 347.46875 264.40625 347.4375 265.082031 347.4375 C 265.753906 347.4375 266.429688 347.46875 267.101562 347.535156 C 267.773438 347.601562 268.4375 347.703125 269.101562 347.832031 C 269.761719 347.964844 270.417969 348.128906 271.0625 348.324219 C 271.707031 348.519531 272.34375 348.75 272.96875 349.007812 C 273.589844 349.265625 274.199219 349.554688 274.796875 349.871094 C 275.390625 350.191406 275.96875 350.535156 276.53125 350.910156 C 277.089844 351.285156 277.632812 351.6875 278.152344 352.117188 C 278.675781 352.546875 279.175781 353 279.652344 353.476562 C 280.128906 353.953125 280.582031 354.453125 281.007812 354.976562 C 281.4375 355.496094 281.839844 356.039062 282.214844 356.601562 C 282.589844 357.160156 282.933594 357.738281 283.253906 358.335938 C 283.570312 358.929688 283.859375 359.539062 284.117188 360.164062 C 284.375 360.789062 284.601562 361.421875 284.796875 362.070312 C 284.992188 362.714844 285.15625 363.367188 285.289062 364.03125 C 285.417969 364.691406 285.515625 365.359375 285.582031 366.03125 C 285.648438 366.703125 285.679688 367.375 285.679688 368.050781 C 285.679688 368.726562 285.648438 369.398438 285.578125 370.070312 C 285.511719 370.742188 285.414062 371.410156 285.28125 372.070312 C 285.148438 372.734375 284.984375 373.386719 284.789062 374.035156 C 284.59375 374.679688 284.363281 375.3125 284.105469 375.9375 C 283.847656 376.5625 283.558594 377.171875 283.238281 377.765625 C 282.921875 378.359375 282.574219 378.9375 282.199219 379.5 C 281.824219 380.058594 281.421875 380.601562 280.992188 381.121094 C 280.5625 381.644531 280.109375 382.140625 279.632812 382.621094 L 239.261719 422.96875 L 279.632812 463.335938 C 280.347656 464.050781 281.007812 464.816406 281.609375 465.628906 C 282.214844 466.445312 282.753906 467.296875 283.230469 468.191406 C 283.707031 469.082031 284.117188 470.007812 284.457031 470.960938 C 284.800781 471.914062 285.070312 472.886719 285.265625 473.878906 C 285.464844 474.875 285.585938 475.875 285.636719 476.886719 C 285.6875 477.898438 285.660156 478.910156 285.5625 479.917969 C 285.464844 480.925781 285.289062 481.917969 285.042969 482.902344 C 284.796875 483.882812 284.480469 484.84375 284.09375 485.777344 C 283.707031 486.714844 283.253906 487.617188 282.730469 488.484375 C 282.210938 489.355469 281.628906 490.179688 280.988281 490.964844 C 280.34375 491.746094 279.648438 492.476562 278.898438 493.15625 C 278.148438 493.839844 277.351562 494.460938 276.507812 495.023438 C 275.667969 495.585938 274.789062 496.082031 273.871094 496.515625 C 272.957031 496.949219 272.015625 497.3125 271.046875 497.605469 C 270.078125 497.902344 269.09375 498.121094 268.089844 498.269531 C 267.089844 498.417969 266.082031 498.492188 265.070312 498.492188 Z M 265.070312 498.492188"/><path d="M 484.75 498.492188 C 483.738281 498.492188 482.730469 498.417969 481.726562 498.269531 C 480.726562 498.121094 479.742188 497.898438 478.773438 497.605469 C 477.800781 497.3125 476.859375 496.949219 475.945312 496.515625 C 475.03125 496.082031 474.152344 495.582031 473.308594 495.019531 C 472.46875 494.457031 471.671875 493.835938 470.921875 493.15625 C 470.171875 492.476562 469.472656 491.746094 468.832031 490.960938 C 468.1875 490.179688 467.609375 489.351562 467.085938 488.484375 C 466.566406 487.617188 466.113281 486.714844 465.726562 485.777344 C 465.335938 484.84375 465.019531 483.882812 464.773438 482.902344 C 464.527344 481.917969 464.355469 480.925781 464.257812 479.917969 C 464.15625 478.910156 464.132812 477.898438 464.183594 476.886719 C 464.230469 475.875 464.355469 474.875 464.554688 473.878906 C 464.75 472.886719 465.019531 471.914062 465.359375 470.960938 C 465.703125 470.007812 466.109375 469.082031 466.589844 468.191406 C 467.066406 467.296875 467.605469 466.445312 468.210938 465.628906 C 468.8125 464.816406 469.472656 464.050781 470.1875 463.335938 L 510.554688 422.96875 L 470.1875 382.621094 C 469.710938 382.140625 469.257812 381.644531 468.828125 381.121094 C 468.402344 380.601562 468 380.058594 467.625 379.5 C 467.25 378.9375 466.902344 378.359375 466.585938 377.765625 C 466.265625 377.171875 465.976562 376.5625 465.71875 375.9375 C 465.460938 375.3125 465.234375 374.679688 465.039062 374.035156 C 464.84375 373.390625 464.679688 372.734375 464.546875 372.074219 C 464.414062 371.410156 464.316406 370.746094 464.25 370.074219 C 464.183594 369.402344 464.148438 368.730469 464.148438 368.054688 C 464.148438 367.378906 464.179688 366.707031 464.246094 366.035156 C 464.3125 365.363281 464.410156 364.699219 464.542969 364.035156 C 464.675781 363.375 464.839844 362.71875 465.035156 362.074219 C 465.230469 361.429688 465.457031 360.792969 465.714844 360.171875 C 465.972656 359.546875 466.261719 358.9375 466.578125 358.34375 C 466.894531 357.746094 467.242188 357.167969 467.617188 356.609375 C 467.992188 356.046875 468.390625 355.507812 468.820312 354.984375 C 469.25 354.460938 469.699219 353.964844 470.175781 353.484375 C 470.65625 353.007812 471.152344 352.554688 471.675781 352.128906 C 472.195312 351.699219 472.738281 351.296875 473.296875 350.921875 C 473.859375 350.546875 474.4375 350.203125 475.03125 349.882812 C 475.625 349.566406 476.234375 349.277344 476.859375 349.019531 C 477.480469 348.757812 478.117188 348.53125 478.761719 348.335938 C 479.40625 348.140625 480.0625 347.976562 480.722656 347.84375 C 481.382812 347.710938 482.050781 347.613281 482.722656 347.546875 C 483.394531 347.480469 484.066406 347.449219 484.742188 347.445312 C 485.417969 347.445312 486.089844 347.480469 486.761719 347.546875 C 487.433594 347.613281 488.097656 347.710938 488.761719 347.839844 C 489.421875 347.972656 490.078125 348.136719 490.722656 348.332031 C 491.367188 348.527344 492.003906 348.753906 492.625 349.011719 C 493.25 349.269531 493.859375 349.558594 494.453125 349.875 C 495.050781 350.195312 495.628906 350.539062 496.1875 350.914062 C 496.75 351.289062 497.289062 351.691406 497.8125 352.117188 C 498.335938 352.546875 498.832031 353 499.3125 353.476562 L 554.242188 408.40625 C 554.71875 408.882812 555.171875 409.382812 555.601562 409.902344 C 556.027344 410.425781 556.429688 410.964844 556.804688 411.527344 C 557.179688 412.089844 557.527344 412.667969 557.847656 413.261719 C 558.164062 413.855469 558.453125 414.464844 558.710938 415.089844 C 558.96875 415.714844 559.195312 416.347656 559.394531 416.996094 C 559.589844 417.640625 559.753906 418.292969 559.886719 418.957031 C 560.015625 419.617188 560.117188 420.285156 560.183594 420.957031 C 560.25 421.628906 560.28125 422.300781 560.28125 422.976562 C 560.28125 423.652344 560.25 424.324219 560.183594 424.996094 C 560.117188 425.667969 560.015625 426.335938 559.886719 427 C 559.753906 427.660156 559.589844 428.3125 559.394531 428.960938 C 559.195312 429.605469 558.96875 430.242188 558.710938 430.863281 C 558.453125 431.488281 558.164062 432.097656 557.847656 432.691406 C 557.527344 433.289062 557.179688 433.867188 556.804688 434.425781 C 556.429688 434.988281 556.027344 435.53125 555.601562 436.050781 C 555.171875 436.574219 554.71875 437.070312 554.242188 437.550781 L 499.3125 492.457031 C 498.355469 493.414062 497.3125 494.269531 496.1875 495.019531 C 495.0625 495.773438 493.878906 496.40625 492.628906 496.925781 C 491.378906 497.441406 490.089844 497.832031 488.765625 498.097656 C 487.441406 498.359375 486.101562 498.492188 484.75 498.492188 Z M 484.75 498.492188"/><path d="M 347.433594 498.492188 C 346.996094 498.492188 346.5625 498.480469 346.125 498.449219 C 345.691406 498.421875 345.257812 498.382812 344.824219 498.324219 C 344.390625 498.269531 343.960938 498.199219 343.53125 498.117188 C 343.101562 498.035156 342.675781 497.9375 342.253906 497.828125 C 341.832031 497.71875 341.414062 497.59375 341 497.457031 C 340.585938 497.320312 340.175781 497.171875 339.769531 497.011719 C 339.367188 496.847656 338.964844 496.671875 338.570312 496.484375 C 338.179688 496.296875 337.789062 496.09375 337.410156 495.882812 C 337.027344 495.671875 336.65625 495.445312 336.289062 495.210938 C 335.921875 494.972656 335.5625 494.726562 335.210938 494.464844 C 334.859375 494.207031 334.515625 493.9375 334.183594 493.65625 C 333.847656 493.375 333.523438 493.082031 333.210938 492.78125 C 332.894531 492.480469 332.589844 492.167969 332.292969 491.847656 C 331.996094 491.527344 331.710938 491.195312 331.4375 490.855469 C 331.164062 490.515625 330.898438 490.167969 330.648438 489.8125 C 330.394531 489.457031 330.152344 489.09375 329.921875 488.722656 C 329.695312 488.351562 329.476562 487.972656 329.273438 487.589844 C 329.066406 487.203125 328.875 486.8125 328.691406 486.414062 C 328.511719 486.015625 328.34375 485.613281 328.191406 485.207031 C 328.035156 484.796875 327.894531 484.386719 327.765625 483.96875 C 327.636719 483.550781 327.519531 483.128906 327.417969 482.707031 C 327.316406 482.28125 327.226562 481.855469 327.152344 481.425781 C 327.078125 480.996094 327.019531 480.5625 326.96875 480.128906 C 326.921875 479.695312 326.890625 479.261719 326.871094 478.824219 C 326.851562 478.386719 326.84375 477.953125 326.851562 477.515625 C 326.859375 477.078125 326.882812 476.644531 326.917969 476.207031 C 326.953125 475.773438 327.003906 475.339844 327.066406 474.90625 C 327.128906 474.476562 327.207031 474.046875 327.296875 473.621094 C 327.390625 473.191406 327.492188 472.769531 327.609375 472.347656 C 327.726562 471.929688 327.859375 471.511719 328.003906 471.101562 C 328.148438 470.6875 328.304688 470.28125 328.472656 469.878906 C 328.644531 469.476562 328.828125 469.082031 329.019531 468.691406 L 383.929688 358.832031 C 384.234375 358.226562 384.566406 357.640625 384.929688 357.070312 C 385.289062 356.496094 385.675781 355.945312 386.09375 355.414062 C 386.507812 354.878906 386.949219 354.367188 387.414062 353.878906 C 387.878906 353.390625 388.371094 352.921875 388.878906 352.480469 C 389.390625 352.039062 389.925781 351.625 390.476562 351.234375 C 391.027344 350.847656 391.597656 350.484375 392.1875 350.152344 C 392.773438 349.816406 393.378906 349.515625 393.996094 349.242188 C 394.613281 348.964844 395.242188 348.722656 395.882812 348.511719 C 396.523438 348.296875 397.175781 348.117188 397.835938 347.96875 C 398.492188 347.820312 399.160156 347.707031 399.828125 347.621094 C 400.5 347.539062 401.171875 347.488281 401.847656 347.472656 C 402.523438 347.457031 403.199219 347.472656 403.871094 347.523438 C 404.546875 347.570312 405.21875 347.652344 405.882812 347.769531 C 406.546875 347.882812 407.207031 348.03125 407.859375 348.210938 C 408.511719 348.390625 409.152344 348.601562 409.78125 348.84375 C 410.410156 349.089844 411.027344 349.363281 411.632812 349.664062 C 412.238281 349.96875 412.824219 350.300781 413.394531 350.664062 C 413.964844 351.023438 414.519531 351.414062 415.050781 351.828125 C 415.582031 352.242188 416.09375 352.683594 416.585938 353.148438 C 417.074219 353.617188 417.539062 354.105469 417.980469 354.617188 C 418.421875 355.125 418.839844 355.660156 419.226562 356.210938 C 419.617188 356.761719 419.980469 357.332031 420.3125 357.921875 C 420.644531 358.507812 420.949219 359.113281 421.222656 359.730469 C 421.496094 360.347656 421.742188 360.976562 421.953125 361.617188 C 422.164062 362.257812 422.34375 362.910156 422.492188 363.570312 C 422.640625 364.230469 422.757812 364.894531 422.839844 365.5625 C 422.921875 366.234375 422.972656 366.90625 422.992188 367.582031 C 423.007812 368.257812 422.992188 368.933594 422.941406 369.609375 C 422.890625 370.28125 422.808594 370.953125 422.695312 371.617188 C 422.578125 372.28125 422.433594 372.941406 422.253906 373.59375 C 422.070312 374.246094 421.859375 374.886719 421.617188 375.515625 C 421.375 376.144531 421.101562 376.761719 420.796875 377.367188 L 365.886719 487.207031 C 365.460938 488.054688 364.972656 488.867188 364.429688 489.648438 C 363.886719 490.429688 363.292969 491.167969 362.648438 491.867188 C 362.003906 492.566406 361.316406 493.214844 360.582031 493.820312 C 359.847656 494.421875 359.074219 494.972656 358.261719 495.46875 C 357.453125 495.964844 356.609375 496.402344 355.738281 496.78125 C 354.867188 497.160156 353.972656 497.476562 353.058594 497.734375 C 352.144531 497.988281 351.214844 498.179688 350.273438 498.308594 C 349.332031 498.433594 348.386719 498.496094 347.433594 498.492188 Z M 347.433594 498.492188"/><g clip-path="url(#a)"><path d="M 642.660156 642.667969 L 107.160156 642.667969 C 106.484375 642.667969 105.8125 642.632812 105.140625 642.566406 C 104.46875 642.5 103.800781 642.402344 103.140625 642.269531 C 102.480469 642.140625 101.824219 641.976562 101.179688 641.78125 C 100.535156 641.582031 99.902344 641.355469 99.277344 641.097656 C 98.652344 640.839844 98.046875 640.550781 97.449219 640.234375 C 96.855469 639.917969 96.277344 639.570312 95.714844 639.195312 C 95.15625 638.820312 94.613281 638.417969 94.09375 637.992188 C 93.570312 637.5625 93.074219 637.109375 92.59375 636.632812 C 92.117188 636.15625 91.667969 635.65625 91.238281 635.136719 C 90.808594 634.613281 90.410156 634.074219 90.035156 633.511719 C 89.660156 632.953125 89.3125 632.375 88.996094 631.777344 C 88.675781 631.183594 88.390625 630.574219 88.128906 629.953125 C 87.871094 629.328125 87.644531 628.695312 87.449219 628.046875 C 87.253906 627.402344 87.089844 626.75 86.957031 626.089844 C 86.828125 625.425781 86.726562 624.761719 86.664062 624.089844 C 86.597656 623.417969 86.5625 622.746094 86.5625 622.070312 L 86.5625 127.761719 C 86.5625 127.089844 86.597656 126.414062 86.664062 125.742188 C 86.726562 125.074219 86.828125 124.40625 86.957031 123.746094 C 87.089844 123.082031 87.253906 122.429688 87.449219 121.785156 C 87.644531 121.136719 87.871094 120.503906 88.128906 119.878906 C 88.390625 119.257812 88.675781 118.648438 88.996094 118.054688 C 89.3125 117.457031 89.660156 116.878906 90.035156 116.320312 C 90.410156 115.757812 90.808594 115.21875 91.238281 114.695312 C 91.667969 114.175781 92.117188 113.675781 92.59375 113.199219 C 93.074219 112.722656 93.570312 112.269531 94.09375 111.839844 C 94.613281 111.414062 95.15625 111.011719 95.714844 110.636719 C 96.277344 110.261719 96.855469 109.917969 97.449219 109.597656 C 98.046875 109.28125 98.652344 108.992188 99.277344 108.734375 C 99.902344 108.476562 100.535156 108.25 101.179688 108.054688 C 101.824219 107.855469 102.480469 107.695312 103.140625 107.5625 C 103.800781 107.429688 104.46875 107.332031 105.140625 107.265625 C 105.8125 107.199219 106.484375 107.167969 107.160156 107.167969 L 642.660156 107.167969 C 643.335938 107.167969 644.007812 107.199219 644.679688 107.265625 C 645.351562 107.332031 646.015625 107.429688 646.679688 107.5625 C 647.339844 107.695312 647.992188 107.855469 648.640625 108.054688 C 649.285156 108.25 649.917969 108.476562 650.542969 108.734375 C 651.164062 108.992188 651.773438 109.28125 652.371094 109.597656 C 652.964844 109.917969 653.542969 110.261719 654.101562 110.636719 C 654.664062 111.011719 655.203125 111.414062 655.726562 111.839844 C 656.246094 112.269531 656.746094 112.722656 657.222656 113.199219 C 657.699219 113.675781 658.152344 114.175781 658.582031 114.695312 C 659.007812 115.21875 659.410156 115.757812 659.785156 116.320312 C 660.160156 116.878906 660.507812 117.457031 660.824219 118.054688 C 661.140625 118.648438 661.429688 119.257812 661.6875 119.878906 C 661.945312 120.503906 662.171875 121.136719 662.371094 121.785156 C 662.566406 122.429688 662.730469 123.082031 662.859375 123.746094 C 662.992188 124.40625 663.089844 125.074219 663.15625 125.742188 C 663.222656 126.414062 663.257812 127.089844 663.257812 127.761719 L 663.257812 622.070312 C 663.257812 622.746094 663.222656 623.417969 663.15625 624.089844 C 663.089844 624.761719 662.992188 625.425781 662.859375 626.089844 C 662.730469 626.75 662.566406 627.402344 662.371094 628.050781 C 662.171875 628.695312 661.945312 629.328125 661.6875 629.953125 C 661.429688 630.574219 661.140625 631.183594 660.824219 631.777344 C 660.507812 632.375 660.160156 632.953125 659.785156 633.511719 C 659.410156 634.074219 659.007812 634.613281 658.582031 635.136719 C 658.152344 635.65625 657.699219 636.15625 657.222656 636.632812 C 656.746094 637.109375 656.246094 637.5625 655.726562 637.992188 C 655.203125 638.417969 654.664062 638.820312 654.101562 639.195312 C 653.542969 639.570312 652.964844 639.917969 652.371094 640.234375 C 651.773438 640.550781 651.164062 640.839844 650.542969 641.097656 C 649.917969 641.355469 649.285156 641.582031 648.640625 641.78125 C 647.992188 641.976562 647.339844 642.140625 646.679688 642.269531 C 646.015625 642.402344 645.351562 642.5 644.679688 642.566406 C 644.007812 642.632812 643.335938 642.667969 642.660156 642.667969 Z M 127.753906 601.472656 L 622.0625 601.472656 L 622.0625 148.359375 L 127.753906 148.359375 Z M 127.753906 601.472656"/></g><g clip-path="url(#b)"><path d="M 642.660156 271.933594 L 107.160156 271.933594 C 106.484375 271.933594 105.8125 271.902344 105.140625 271.835938 C 104.46875 271.769531 103.800781 271.671875 103.140625 271.539062 C 102.480469 271.40625 101.824219 271.246094 101.179688 271.046875 C 100.535156 270.851562 99.902344 270.625 99.277344 270.367188 C 98.652344 270.109375 98.046875 269.820312 97.449219 269.503906 C 96.855469 269.1875 96.277344 268.839844 95.714844 268.464844 C 95.15625 268.089844 94.613281 267.6875 94.09375 267.261719 C 93.570312 266.832031 93.074219 266.378906 92.59375 265.902344 C 92.117188 265.425781 91.667969 264.925781 91.238281 264.40625 C 90.808594 263.882812 90.410156 263.34375 90.035156 262.78125 C 89.660156 262.222656 89.3125 261.644531 88.996094 261.046875 C 88.675781 260.453125 88.390625 259.84375 88.128906 259.222656 C 87.871094 258.597656 87.644531 257.964844 87.449219 257.316406 C 87.253906 256.671875 87.089844 256.019531 86.957031 255.359375 C 86.828125 254.695312 86.726562 254.03125 86.664062 253.359375 C 86.597656 252.6875 86.5625 252.015625 86.5625 251.339844 C 86.5625 250.664062 86.597656 249.992188 86.664062 249.320312 C 86.726562 248.648438 86.828125 247.984375 86.957031 247.320312 C 87.089844 246.660156 87.253906 246.007812 87.449219 245.359375 C 87.644531 244.714844 87.871094 244.082031 88.128906 243.457031 C 88.390625 242.835938 88.675781 242.226562 88.996094 241.628906 C 89.3125 241.035156 89.660156 240.457031 90.035156 239.898438 C 90.410156 239.335938 90.808594 238.792969 91.238281 238.273438 C 91.667969 237.75 92.117188 237.253906 92.59375 236.777344 C 93.074219 236.296875 93.570312 235.847656 94.09375 235.417969 C 94.613281 234.992188 95.15625 234.589844 95.714844 234.214844 C 96.277344 233.839844 96.855469 233.492188 97.449219 233.175781 C 98.046875 232.855469 98.652344 232.570312 99.277344 232.3125 C 99.902344 232.054688 100.535156 231.824219 101.179688 231.628906 C 101.824219 231.433594 102.480469 231.269531 103.140625 231.140625 C 103.800781 231.007812 104.46875 230.910156 105.140625 230.84375 C 105.8125 230.777344 106.484375 230.742188 107.160156 230.742188 L 642.660156 230.742188 C 643.335938 230.742188 644.007812 230.777344 644.679688 230.84375 C 645.351562 230.910156 646.015625 231.007812 646.679688 231.140625 C 647.339844 231.269531 647.992188 231.433594 648.640625 231.628906 C 649.285156 231.824219 649.917969 232.054688 650.542969 232.3125 C 651.164062 232.570312 651.773438 232.855469 652.371094 233.175781 C 652.964844 233.492188 653.542969 233.839844 654.101562 234.214844 C 654.664062 234.589844 655.203125 234.992188 655.726562 235.417969 C 656.246094 235.847656 656.746094 236.296875 657.222656 236.777344 C 657.699219 237.253906 658.152344 237.75 658.582031 238.273438 C 659.007812 238.792969 659.410156 239.335938 659.785156 239.898438 C 660.160156 240.457031 660.507812 241.035156 660.824219 241.628906 C 661.140625 242.226562 661.429688 242.835938 661.6875 243.457031 C 661.945312 244.082031 662.171875 244.714844 662.371094 245.359375 C 662.566406 246.007812 662.730469 246.660156 662.859375 247.320312 C 662.992188 247.984375 663.089844 248.648438 663.15625 249.320312 C 663.222656 249.992188 663.257812 250.664062 663.257812 251.339844 C 663.257812 252.015625 663.222656 252.6875 663.15625 253.359375 C 663.089844 254.03125 662.992188 254.695312 662.859375 255.359375 C 662.730469 256.019531 662.566406 256.671875 662.371094 257.316406 C 662.171875 257.964844 661.945312 258.597656 661.6875 259.222656 C 661.429688 259.84375 661.140625 260.453125 660.824219 261.046875 C 660.507812 261.644531 660.160156 262.222656 659.785156 262.78125 C 659.410156 263.34375 659.007812 263.882812 658.582031 264.40625 C 658.152344 264.925781 657.699219 265.425781 657.222656 265.902344 C 656.746094 266.378906 656.246094 266.832031 655.726562 267.261719 C 655.203125 267.6875 654.664062 268.089844 654.101562 268.464844 C 653.542969 268.839844 652.964844 269.1875 652.371094 269.503906 C 651.773438 269.820312 651.164062 270.109375 650.542969 270.367188 C 649.917969 270.625 649.285156 270.851562 648.640625 271.046875 C 647.992188 271.246094 647.339844 271.40625 646.679688 271.539062 C 646.015625 271.671875 645.351562 271.769531 644.679688 271.835938 C 644.007812 271.902344 643.335938 271.933594 642.660156 271.933594 Z M 642.660156 271.933594"/></g><path d="M 457.292969 210.148438 C 455.914062 210.101562 454.539062 209.964844 453.175781 209.734375 C 451.878906 209.507812 450.640625 209.097656 449.46875 208.5 C 448.144531 208.042969 446.902344 207.425781 445.738281 206.644531 L 442.671875 204.175781 C 442.199219 203.691406 441.75 203.1875 441.324219 202.660156 C 440.902344 202.136719 440.503906 201.589844 440.132812 201.027344 C 439.761719 200.460938 439.417969 199.882812 439.105469 199.285156 C 438.789062 198.6875 438.503906 198.074219 438.25 197.449219 C 437.992188 196.824219 437.769531 196.1875 437.574219 195.539062 C 437.378906 194.894531 437.21875 194.238281 437.089844 193.574219 C 436.957031 192.914062 436.859375 192.246094 436.796875 191.574219 C 436.730469 190.898438 436.695312 190.226562 436.695312 189.550781 C 436.695312 188.875 436.730469 188.203125 436.796875 187.527344 C 436.859375 186.855469 436.957031 186.1875 437.089844 185.527344 C 437.21875 184.863281 437.378906 184.207031 437.574219 183.5625 C 437.769531 182.914062 437.992188 182.277344 438.25 181.652344 C 438.503906 181.027344 438.789062 180.414062 439.105469 179.816406 C 439.417969 179.21875 439.761719 178.640625 440.132812 178.074219 C 440.503906 177.511719 440.902344 176.964844 441.324219 176.441406 C 441.75 175.914062 442.199219 175.410156 442.671875 174.925781 C 443.398438 174.226562 444.171875 173.582031 444.988281 172.992188 C 445.808594 172.402344 446.667969 171.875 447.5625 171.410156 C 448.460938 170.945312 449.382812 170.546875 450.335938 170.214844 C 451.289062 169.882812 452.261719 169.621094 453.253906 169.433594 C 454.246094 169.242188 455.246094 169.121094 456.253906 169.074219 C 457.261719 169.03125 458.269531 169.054688 459.273438 169.15625 C 460.277344 169.253906 461.269531 169.425781 462.25 169.667969 C 463.230469 169.910156 464.1875 170.222656 465.121094 170.601562 C 466.394531 171.019531 467.5625 171.636719 468.621094 172.457031 C 469.835938 173.28125 470.886719 174.105469 471.917969 174.925781 C 472.390625 175.410156 472.839844 175.914062 473.261719 176.441406 C 473.6875 176.964844 474.085938 177.511719 474.457031 178.074219 C 474.828125 178.640625 475.171875 179.21875 475.484375 179.816406 C 475.800781 180.414062 476.085938 181.027344 476.339844 181.652344 C 476.597656 182.277344 476.820312 182.914062 477.015625 183.5625 C 477.207031 184.207031 477.371094 184.863281 477.5 185.527344 C 477.628906 186.1875 477.726562 186.855469 477.792969 187.527344 C 477.859375 188.203125 477.890625 188.875 477.890625 189.550781 C 477.890625 190.226562 477.859375 190.898438 477.792969 191.574219 C 477.726562 192.246094 477.628906 192.914062 477.5 193.574219 C 477.371094 194.238281 477.207031 194.894531 477.015625 195.539062 C 476.820312 196.1875 476.597656 196.824219 476.339844 197.449219 C 476.085938 198.074219 475.800781 198.6875 475.484375 199.285156 C 475.171875 199.882812 474.828125 200.460938 474.457031 201.027344 C 474.085938 201.589844 473.6875 202.136719 473.261719 202.660156 C 472.839844 203.1875 472.390625 203.691406 471.917969 204.175781 C 469.898438 206 467.632812 207.441406 465.121094 208.5 C 462.621094 209.566406 460.011719 210.113281 457.292969 210.148438 Z M 457.292969 210.148438"/><path d="M 519.082031 210.148438 C 517.699219 210.101562 516.328125 209.964844 514.964844 209.734375 C 513.664062 209.507812 512.429688 209.097656 511.257812 208.5 C 509.933594 208.042969 508.691406 207.425781 507.527344 206.644531 C 506.460938 205.878906 505.4375 205.054688 504.460938 204.175781 C 502.53125 202.21875 501.089844 199.953125 500.132812 197.378906 C 499.589844 196.144531 499.179688 194.867188 498.902344 193.550781 C 498.625 192.230469 498.488281 190.898438 498.488281 189.550781 C 498.488281 188.203125 498.625 186.871094 498.902344 185.550781 C 499.179688 184.234375 499.589844 182.957031 500.132812 181.722656 C 501.1875 179.210938 502.628906 176.945312 504.460938 174.925781 C 505.175781 174.207031 505.941406 173.539062 506.757812 172.929688 C 507.570312 172.324219 508.425781 171.777344 509.320312 171.296875 C 510.21875 170.8125 511.144531 170.398438 512.101562 170.054688 C 513.058594 169.710938 514.035156 169.4375 515.03125 169.238281 C 516.03125 169.039062 517.035156 168.910156 518.050781 168.859375 C 519.066406 168.808594 520.082031 168.835938 521.09375 168.933594 C 522.105469 169.03125 523.105469 169.207031 524.09375 169.453125 C 525.078125 169.699219 526.042969 170.019531 526.980469 170.410156 C 527.921875 170.800781 528.824219 171.257812 529.699219 171.78125 C 530.570312 172.304688 531.398438 172.890625 532.183594 173.539062 C 532.96875 174.183594 533.699219 174.886719 534.382812 175.640625 C 535.0625 176.394531 535.683594 177.199219 536.246094 178.046875 C 536.808594 178.894531 537.304688 179.777344 537.738281 180.699219 C 538.167969 181.621094 538.527344 182.566406 538.820312 183.542969 C 539.109375 184.515625 539.328125 185.507812 539.472656 186.515625 C 539.617188 187.523438 539.683594 188.535156 539.679688 189.550781 C 539.640625 192.277344 539.105469 194.902344 538.074219 197.425781 C 537.042969 199.949219 535.585938 202.199219 533.707031 204.175781 C 532.722656 205.054688 531.691406 205.878906 530.617188 206.644531 C 529.460938 207.425781 528.226562 208.042969 526.910156 208.5 C 525.734375 209.09375 524.5 209.507812 523.203125 209.734375 C 521.839844 209.972656 520.464844 210.109375 519.082031 210.148438 Z M 519.082031 210.148438"/><path d="M 580.871094 210.148438 C 580.195312 210.152344 579.519531 210.128906 578.847656 210.066406 C 578.171875 210.007812 577.503906 209.914062 576.839844 209.785156 C 576.175781 209.660156 575.519531 209.5 574.871094 209.308594 C 574.222656 209.113281 573.582031 208.890625 572.957031 208.636719 C 572.332031 208.378906 571.71875 208.09375 571.121094 207.777344 C 570.523438 207.460938 569.941406 207.113281 569.378906 206.742188 C 568.816406 206.367188 568.273438 205.964844 567.75 205.535156 C 567.226562 205.109375 566.726562 204.65625 566.246094 204.175781 C 565.769531 203.699219 565.316406 203.195312 564.886719 202.671875 C 564.457031 202.148438 564.054688 201.605469 563.683594 201.042969 C 563.308594 200.480469 562.960938 199.898438 562.644531 199.300781 C 562.328125 198.703125 562.042969 198.089844 561.789062 197.464844 C 561.53125 196.839844 561.308594 196.203125 561.113281 195.554688 C 560.921875 194.90625 560.761719 194.246094 560.636719 193.582031 C 560.507812 192.917969 560.414062 192.25 560.355469 191.578125 C 560.296875 190.902344 560.269531 190.226562 560.277344 189.550781 C 560.203125 186.8125 560.753906 184.203125 561.921875 181.722656 C 562.976562 179.210938 564.417969 176.945312 566.25 174.925781 C 566.742188 174.472656 567.253906 174.042969 567.785156 173.636719 C 568.320312 173.230469 568.867188 172.847656 569.4375 172.492188 C 570.003906 172.136719 570.589844 171.808594 571.1875 171.507812 C 571.785156 171.207031 572.398438 170.9375 573.019531 170.691406 C 573.644531 170.449219 574.28125 170.234375 574.921875 170.046875 C 575.566406 169.863281 576.21875 169.710938 576.878906 169.585938 C 577.535156 169.460938 578.199219 169.367188 578.867188 169.304688 C 579.53125 169.242188 580.203125 169.210938 580.871094 169.210938 C 581.542969 169.210938 582.210938 169.242188 582.878906 169.304688 C 583.542969 169.367188 584.207031 169.460938 584.867188 169.585938 C 585.523438 169.710938 586.175781 169.863281 586.820312 170.046875 C 587.464844 170.234375 588.097656 170.449219 588.722656 170.691406 C 589.347656 170.9375 589.957031 171.207031 590.554688 171.507812 C 591.15625 171.808594 591.738281 172.136719 592.304688 172.492188 C 592.875 172.847656 593.425781 173.230469 593.957031 173.636719 C 594.488281 174.042969 595.003906 174.472656 595.496094 174.925781 C 597.324219 176.945312 598.769531 179.210938 599.820312 181.722656 C 600.886719 184.222656 601.433594 186.832031 601.46875 189.550781 C 601.476562 190.226562 601.449219 190.902344 601.386719 191.574219 C 601.328125 192.25 601.234375 192.917969 601.105469 193.582031 C 600.980469 194.246094 600.820312 194.90625 600.628906 195.554688 C 600.4375 196.203125 600.210938 196.839844 599.957031 197.464844 C 599.699219 198.089844 599.414062 198.703125 599.097656 199.300781 C 598.78125 199.898438 598.4375 200.480469 598.0625 201.042969 C 597.6875 201.605469 597.285156 202.148438 596.855469 202.671875 C 596.429688 203.195312 595.976562 203.699219 595.496094 204.175781 C 595.019531 204.652344 594.515625 205.109375 593.992188 205.535156 C 593.46875 205.964844 592.925781 206.367188 592.363281 206.742188 C 591.800781 207.113281 591.21875 207.460938 590.621094 207.777344 C 590.023438 208.09375 589.410156 208.378906 588.785156 208.636719 C 588.160156 208.890625 587.523438 209.113281 586.875 209.308594 C 586.226562 209.5 585.570312 209.660156 584.902344 209.785156 C 584.238281 209.914062 583.570312 210.007812 582.898438 210.066406 C 582.222656 210.128906 581.546875 210.152344 580.871094 210.148438 Z M 580.871094 210.148438"/></svg>